<?xml version="1.0" encoding="iso-8859-1"?>
<!-- Generator: Adobe Illustrator 19.0.0, SVG Export Plug-In . SVG Version: 6.00 Build 0)  -->
<svg version="1.1" id="Layer_1" xmlns="http://www.w3.org/2000/svg" xmlns:xlink="http://www.w3.org/1999/xlink" x="0px" y="0px"
	 viewBox="0 0 512 512" style="enable-background:new 0 0 512 512;" xml:space="preserve">
<path style="fill:#AD396B;" d="M501.93,184.713C471.057,78.018,372.645,0,256,0C114.616,0,0,114.616,0,256
	c0,116.645,78.018,215.057,184.713,245.93L501.93,184.713z"/>
<path style="fill:#3A2F4D;" d="M512,256c0-24.741-3.522-48.657-10.07-71.287l-78.974-78.974L89.043,406.261l95.669,95.669
	C207.343,508.479,231.259,512,256,512C397.385,512,512,397.385,512,256z"/>
<polygon style="fill:#FFCE47;" points="89.043,105.739 89.043,406.261 200.348,406.261 233.739,256 200.348,105.739 "/>
<polygon style="fill:#FFFFFF;" points="109.281,128 109.281,256 144.696,278.261 180.11,256 180.11,128 "/>
<rect x="109.279" y="256" style="fill:#FFE290;" width="70.834" height="33.391"/>
<path style="fill:#3A2F4D;" d="M144.696,328.348l-18.551,27.826L144.696,384c15.368,0,27.826-12.458,27.826-27.826
	S160.063,328.348,144.696,328.348z"/>
<path style="fill:#843561;" d="M116.87,356.174c0,15.368,12.458,27.826,27.826,27.826v-55.652
	C129.328,328.348,116.87,340.806,116.87,356.174z"/>
<polygon style="fill:#45A2E0;" points="311.652,105.739 278.261,256 311.652,406.261 422.957,406.261 422.957,105.739 "/>
<rect x="331.887" y="128" style="fill:#C7E9FF;" width="70.834" height="128"/>
<rect x="331.887" y="256" style="fill:#7ACBFF;" width="70.834" height="33.391"/>
<path style="fill:#092A40;" d="M367.304,328.348l-18.551,27.826L367.304,384c15.368,0,27.826-12.458,27.826-27.826
	S382.672,328.348,367.304,328.348z"/>
<path style="fill:#174461;" d="M339.478,356.174c0,15.368,12.458,27.826,27.826,27.826v-55.652
	C351.937,328.348,339.478,340.806,339.478,356.174z"/>
<polygon style="fill:#FF4181;" points="256,105.739 233.739,256 256,406.261 311.652,406.261 311.652,105.739 "/>
<rect x="200.348" y="105.739" style="fill:#FF6196;" width="55.652" height="300.522"/>
<path style="fill:#092A40;" d="M256,328.348l-18.551,27.826L256,384c15.368,0,27.826-12.458,27.826-27.826
	S271.368,328.348,256,328.348z"/>
<path style="fill:#5B3256;" d="M228.174,356.174C228.174,371.542,240.632,384,256,384v-55.652
	C240.632,328.348,228.174,340.806,228.174,356.174z"/>
<polygon style="fill:#C7E9FF;" points="256,128 233.739,278.261 291.415,256 291.415,128 "/>
<polygon style="fill:#FFFFFF;" points="256,128 220.585,128 220.585,256 256,278.261 "/>
<polygon style="fill:#7ACBFF;" points="256,289.391 291.415,289.391 291.415,256 256,256 233.739,272.696 "/>
<rect x="220.583" y="256" style="fill:#A3DBFF;" width="35.415" height="33.391"/>
<g>
</g>
<g>
</g>
<g>
</g>
<g>
</g>
<g>
</g>
<g>
</g>
<g>
</g>
<g>
</g>
<g>
</g>
<g>
</g>
<g>
</g>
<g>
</g>
<g>
</g>
<g>
</g>
<g>
</g>
</svg>
