<svg id="Capa_1" enable-background="new 0 0 512 512" height="512" viewBox="0 0 512 512" width="512" xmlns="http://www.w3.org/2000/svg"><g><g><g><g><g><g><g><circle cx="256" cy="256" fill="#ffce00" r="256"/></g></g></g></g></g></g><path d="m512 256c0-10.222-.599-20.304-1.764-30.213l-37.304-37.304-20.228 9.535-58.096-58.096-268.691 284.832 82.908 82.908c15.29 2.849 31.059 4.338 47.175 4.338 141.385 0 256-114.615 256-256z" fill="#ffa300"/><g><g><path d="m125.917 75.246h134.001v349.509h-134.001z" fill="#fff"/></g><g><path d="m394.608 139.922-64.676-64.676h-73.812v349.508h138.488z" fill="#e9edf5"/></g><g><path d="m329.932 139.922h64.676l-64.676-64.676z" fill="#cdd2e1"/></g></g><g><path d="m172.28 139.761h68.174v30h-68.174z" fill="#cdd2e1"/></g><g><path d="m172.28 212.738h170.715v30h-170.715z" fill="#cdd2e1"/></g><g><path d="m256.12 212.738h86.875v30h-86.875z" fill="#afb4c8"/></g><g><path d="m172.28 268.774h170.715v30h-170.715z" fill="#cdd2e1"/></g><g><path d="m256.12 268.774h86.875v30h-86.875z" fill="#afb4c8"/></g><g><path d="m313.628 325.957c-20.949-.857-32.281 14.366-40.554 25.474-7.662 10.286-11.655 14.823-17.745 15.096-3.611.168-9.477-7.706-14.2-14.027-6.632-8.877-14.056-18.793-25.193-24.045v40.453c.389.519.777 1.037 1.159 1.548 8.707 11.654 19.482 26.078 37.955 26.078.534 0 1.075-.012 1.621-.037 20.942-.938 32.224-16.085 40.462-27.145 7.615-10.223 10.888-13.58 15.282-13.418 10.509.425 30.256 20.696 40.463 35.155l24.541-17.255c-5.474-7.787-34.275-46.683-63.791-47.877z" fill="#cdd2e1"/></g><g><path d="m313.628 325.957c-20.949-.857-32.281 14.366-40.554 25.474-7.323 9.831-11.299 14.399-16.953 15.024v30.054c.184-.006.365-.004.551-.013 20.942-.938 32.224-16.085 40.462-27.145 7.615-10.223 10.888-13.58 15.282-13.418 10.509.425 30.256 20.696 40.463 35.155l24.541-17.255c-5.475-7.786-34.276-46.682-63.792-47.876z" fill="#afb4c8"/></g><g><g><path d="m389.724 371.224-36.874 19.898-4.991-38.961 83.209-182.74 41.864 19.062z" fill="#555a66"/></g></g><g><g><path d="m472.932 188.483-20.266-9.227-99.788 211.832 36.846-19.864z" fill="#333940"/></g></g><g><path d="m398.249 240.095h88.706v30h-88.706z" fill="#f2f6fc" transform="matrix(.414 -.91 .91 .414 27.029 552.196)"/></g></g></svg>