<?xml version="1.0" encoding="iso-8859-1"?>
<!-- Generator: Adobe Illustrator 21.0.0, SVG Export Plug-In . SVG Version: 6.00 Build 0)  -->
<svg version="1.1" id="Capa_1" xmlns="http://www.w3.org/2000/svg" xmlns:xlink="http://www.w3.org/1999/xlink" x="0px" y="0px"
	 viewBox="0 0 512 512" style="enable-background:new 0 0 512 512;" xml:space="preserve">
<linearGradient id="SVGID_1_" gradientUnits="userSpaceOnUse" x1="74.9807" y1="439.0193" x2="437.0193" y2="76.9807" gradientTransform="matrix(1 0 0 -1 0 514)">
	<stop  offset="0" style="stop-color:#25D9F8"/>
	<stop  offset="1" style="stop-color:#0080AF"/>
</linearGradient>
<circle style="fill:url(#SVGID_1_);" cx="256" cy="256" r="256"/>
<g>
	
		<linearGradient id="SVGID_2_" gradientUnits="userSpaceOnUse" x1="354.277" y1="355.7345" x2="395" y2="355.7345" gradientTransform="matrix(1 0 0 -1 0 514)">
		<stop  offset="0" style="stop-color:#FFFFFF"/>
		<stop  offset="1" style="stop-color:#D3D3D8"/>
	</linearGradient>
	<path style="fill:url(#SVGID_2_);" d="M354.277,133.832c0,29.233,0-18.65,0,48.867H395v-48.867H354.277z"/>
	
		<linearGradient id="SVGID_3_" gradientUnits="userSpaceOnUse" x1="354.277" y1="290.5785" x2="395" y2="290.5785" gradientTransform="matrix(1 0 0 -1 0 514)">
		<stop  offset="0" style="stop-color:#FFFFFF"/>
		<stop  offset="1" style="stop-color:#D3D3D8"/>
	</linearGradient>
	<path style="fill:url(#SVGID_3_);" d="M354.277,198.988c0,29.233,0-18.65,0,48.867H395v-48.867H354.277z"/>
	
		<linearGradient id="SVGID_4_" gradientUnits="userSpaceOnUse" x1="354.277" y1="225.4215" x2="395" y2="225.4215" gradientTransform="matrix(1 0 0 -1 0 514)">
		<stop  offset="0" style="stop-color:#FFFFFF"/>
		<stop  offset="1" style="stop-color:#D3D3D8"/>
	</linearGradient>
	<path style="fill:url(#SVGID_4_);" d="M354.277,264.145c0,29.233,0-18.65,0,48.867H395v-48.867H354.277z"/>
	
		<linearGradient id="SVGID_5_" gradientUnits="userSpaceOnUse" x1="354.277" y1="160.2655" x2="395" y2="160.2655" gradientTransform="matrix(1 0 0 -1 0 514)">
		<stop  offset="0" style="stop-color:#FFFFFF"/>
		<stop  offset="1" style="stop-color:#D3D3D8"/>
	</linearGradient>
	<path style="fill:url(#SVGID_5_);" d="M354.277,329.301c0,29.233,0-18.65,0,48.867H395v-48.867H354.277z"/>
</g>
<linearGradient id="SVGID_6_" gradientUnits="userSpaceOnUse" x1="149.578" y1="258" x2="362.422" y2="258" gradientTransform="matrix(1 0 0 -1 0 514)">
	<stop  offset="0" style="stop-color:#FFD400"/>
	<stop  offset="1" style="stop-color:#FF9F00"/>
</linearGradient>
<path style="fill:url(#SVGID_6_);" d="M149.578,117v278h212.844V117H149.578z"/>
<g>
	
		<linearGradient id="SVGID_7_" gradientUnits="userSpaceOnUse" x1="112" y1="258" x2="266" y2="258" gradientTransform="matrix(1 0 0 -1 0 514)">
		<stop  offset="0" style="stop-color:#7B7B7B"/>
		<stop  offset="1" style="stop-color:#292929"/>
	</linearGradient>
	<path style="fill:url(#SVGID_7_);" d="M165.867,395H117V117h48.867V395z"/>
	
		<linearGradient id="SVGID_8_" gradientUnits="userSpaceOnUse" x1="112" y1="217.6035" x2="266" y2="217.6035" gradientTransform="matrix(1 0 0 -1 0 514)">
		<stop  offset="0" style="stop-color:#7B7B7B"/>
		<stop  offset="1" style="stop-color:#292929"/>
	</linearGradient>
	<path style="fill:url(#SVGID_8_);" d="M311.708,292.161c-12.217-18.244-32.252-28.669-55.219-28.669H256
		c-22.967,0.163-43.818,10.914-55.708,28.669l-1.303,2.118v35.022h114.023v-35.022L311.708,292.161z"/>
	
		<linearGradient id="SVGID_9_" gradientUnits="userSpaceOnUse" x1="112" y1="290.578" x2="266" y2="290.578" gradientTransform="matrix(1 0 0 -1 0 514)">
		<stop  offset="0" style="stop-color:#7B7B7B"/>
		<stop  offset="1" style="stop-color:#292929"/>
	</linearGradient>
	<path style="fill:url(#SVGID_9_);" d="M256,182.699c-22.479,0-40.723,18.244-40.723,40.723s18.244,40.723,40.723,40.723
		s40.723-18.244,40.723-40.723S278.479,182.699,256,182.699z"/>
</g>
<g>
</g>
<g>
</g>
<g>
</g>
<g>
</g>
<g>
</g>
<g>
</g>
<g>
</g>
<g>
</g>
<g>
</g>
<g>
</g>
<g>
</g>
<g>
</g>
<g>
</g>
<g>
</g>
<g>
</g>
</svg>
