<svg height="512pt" viewBox="0 0 512 512" width="512pt" xmlns="http://www.w3.org/2000/svg"><path d="m40 144v288h357.441406c9.21875 19.570312 28.925782 32.042969 50.558594 32h-440v-352h384v32zm0 0" fill="#74b9ff"/><path d="m392 408c-.03125 8.308594 1.828125 16.515625 5.441406 24h-357.441406v-288h352zm0 0" fill="#8fccff"/><path d="m504 104v304c0-30.929688-25.070312-56-56-56s-56 25.070312-56 56v-304c0-30.929688 25.070312-56 56-56s56 25.070312 56 56zm0 0" fill="#0984e3"/><path d="m397.441406 432c-3.613281-7.484375-5.472656-15.691406-5.441406-24-.050781-28.585938 21.402344-52.636719 49.808594-55.839844 28.40625-3.207031 54.675781 15.460938 60.996094 43.339844 6.320312 27.878906-9.335938 56.050781-36.347657 65.40625-27.011719 9.359375-56.738281-3.09375-69.015625-28.90625zm74.558594-24c0-13.253906-10.746094-24-24-24s-24 10.746094-24 24 10.746094 24 24 24 24-10.746094 24-24zm0 0" fill="#73b7e5"/><path d="m472 408c0 13.253906-10.746094 24-24 24s-24-10.746094-24-24 10.746094-24 24-24 24 10.746094 24 24zm0 0" fill="#edf1f2"/><path d="m392 192v72c-39.765625 0-72 32.234375-72 72h-72v-24l35.121094-1.921875c2.757812-11.558594 7.351562-22.605469 13.597656-32.71875l-23.519531-26.238281 33.921875-33.921875 26.238281 23.519531c10.113281-6.246094 21.160156-10.839844 32.71875-13.597656l1.921875-35.121094zm0 0" fill="#ff7675"/><path d="m283.121094 43.121094 34.480468 35.039062-17.28125 17.601563-34.398437-35.121094zm0 0" fill="#6e7a7c"/><path d="m317.601562 8 34.398438 35.121094-34.398438 35.039062-34.480468-35.039062zm0 0" fill="#dfe6e9"/><path d="m168.160156 207.039062 5.761719 17.601563-57.441406 23.359375 22.960937-58.480469 17.199219 5.839844zm0 0" fill="#fab1a0"/><path d="m215.519531 112 50.402344-51.359375 34.398437 35.121094-14.160156 14.476562-31.679687 32.242188-80.558594 82.160156-5.761719-17.601563-11.519531-11.679687-17.199219-5.839844 44.636719-45.441406zm0 0" fill="#81ecec"/><path d="m328 504h-288v-288zm-248-40h152l-152-152zm0 0" fill="#fdcb6e"/><path d="m448 40c-35.328125.039062-63.960938 28.671875-64 64h-80.511719l54.222657-55.273438c3.050781-3.109374 3.050781-8.085937 0-11.199218l-34.390626-35.128906c-1.507812-1.535157-3.570312-2.398438-5.71875-2.398438-2.152343 0-4.210937.867188-5.714843 2.398438l-99.71875 101.601562h-204.167969c-4.417969 0-8 3.582031-8 8v352c0 4.417969 3.582031 8 8 8h24v32c0 4.417969 3.582031 8 8 8h288c3.234375 0 6.152344-1.949219 7.390625-4.9375s.550781-6.429688-1.734375-8.71875l-26.34375-26.34375h140.6875c35.328125-.039062 63.960938-28.671875 64-64v-304c-.039062-35.328125-28.671875-63.960938-64-64zm-61.902344 384h-126.785156l-80-80h204.6875v64c.015625 5.402344.71875 10.777344 2.097656 16zm-83.417968-152-18.464844-20.601562 23.199218-23.199219 20.585938 18.472656c2.636719 2.363281 6.511719 2.710937 9.527344.855469 9.398437-5.800782 19.660156-10.066406 30.402344-12.632813 3.445312-.820312 5.941406-3.804687 6.132812-7.34375l1.511719-27.550781h8.425781v56.40625c-37.828125 3.859375-67.734375 33.765625-71.59375 71.59375h-56.40625v-8.433594l27.550781-1.503906c3.535157-.191406 6.523438-2.683594 7.34375-6.125 2.566407-10.742188 6.832031-21.003906 12.632813-30.402344 1.859375-3.015625 1.515625-6.894531-.847656-9.535156zm81.320312 56h-55.449219c3.691407-28.957031 26.492188-51.757812 55.449219-55.449219zm0-208v16h-111.910156l15.910156-16.214844v.214844zm-239.902344 79.542969 8.175782 2.777343 8.863281 8.992188 2.855469 8.71875-33.25 13.570312zm29.757813 1.871093-11.511719-11.679687c-.875-.886719-1.945312-1.558594-3.128906-1.957031l-5.144532-1.746094 111.851563-113.960938 23.199219 23.707032-111.6875 113.863281-1.671875-5.097656c-.390625-1.171875-1.042969-2.242188-1.914063-3.117188zm103.28125-140.796874 6-6.113282 23.261719 23.679688-6.046876 6.167968zm40.464843-41.191407 23.199219 23.6875-23.199219 23.640625-23.257812-23.632812zm-280.664062 189.183594c-2.988281 1.238281-4.9375 4.15625-4.9375 7.390625v240h-16v-336h180.464844l-15.664063 16h-140.800781c-4.417969 0-8 3.582031-8 8v48h16v-40h117.054688l-31.320313 31.910156c-.738281.78125-1.3125 1.699219-1.6875 2.707032h-.054687l-22.960938 58.480468c-1.171875 2.976563-.453125 6.367188 1.824219 8.617188 2.277343 2.25 5.675781 2.925781 8.640625 1.71875l57.449218-23.363282c1.011719-.40625 1.933594-1.015624 2.703126-1.789062l76.800781-78.242188h127.550781v32h-16c-4.253906-.003906-7.765625 3.316407-8 7.5625l-1.601562 29.320313c-8.339844 2.445313-16.386719 5.800781-24 10l-21.910157-19.640625c-3.164062-2.832031-7.988281-2.699219-10.992187.304688l-33.910156 33.917968c-3.007813 3.003906-3.144532 7.835938-.304688 11l19.589844 21.894532c-4.191406 7.613281-7.542969 15.664062-9.992188 24l-29.320312 1.601562c-4.246094.234375-7.566406 3.746094-7.558594 8v16h-32v-16c0-13.253906-10.746094-24-24-24h-8c-4.417969 0-8-3.582031-8-8-.003906-2.160156.882812-4.222656 2.457031-5.703125 1.457031-1.488281 3.460938-2.316406 5.542969-2.296875h40c13.253906 0 24-10.746094 24-24v-16h-16v16c0 4.417969-3.582031 8-8 8h-40c-13.226562.066406-23.933594 10.773438-24 24 0 13.253906 10.746094 24 24 24h8c4.417969 0 8 3.582031 8 8v16h-28.6875l-117.65625-117.65625c-2.289062-2.289062-5.730469-2.972656-8.71875-1.734375zm11.0625 287.390625v-260.6875l260.6875 260.6875zm243.3125-40-16-16h117.488281c3.402344 5.996094 7.753907 11.398438 12.886719 16zm156.6875 0c-18.582031.101562-35.519531-10.632812-43.359375-27.480469-3.082031-6.398437-4.667969-13.417969-4.640625-20.519531 0-26.507812 21.492188-48 48-48s48 21.492188 48 48-21.492188 48-48 48zm0-112c-18.394531.011719-35.890625 7.960938-48 21.808594v-261.808594c0-26.507812 21.492188-48 48-48s48 21.492188 48 48v261.808594c-12.109375-13.847656-29.605469-21.796875-48-21.808594zm0 0"/><path d="m448 376c-17.671875 0-32 14.328125-32 32s14.328125 32 32 32 32-14.328125 32-32-14.328125-32-32-32zm0 48c-8.835938 0-16-7.164062-16-16s7.164062-16 16-16 16 7.164062 16 16-7.164062 16-16 16zm0 0"/><path d="m80 472h152c3.234375 0 6.152344-1.949219 7.390625-4.9375s.550781-6.429688-1.734375-8.71875l-152-152c-2.289062-2.285156-5.730469-2.972656-8.71875-1.734375s-4.9375 4.15625-4.9375 7.390625v152c0 4.417969 3.582031 8 8 8zm8-16v-16h108.6875l16 16zm92.6875-32h-92.6875v-92.6875zm0 0"/><path d="m352 360h16v16h-16zm0 0"/><path d="m320 360h16v16h-16zm0 0"/><path d="m288 360h16v16h-16zm0 0"/><path d="m264 392h104v16h-104zm0 0"/><path d="m224 200h16v16h-16zm0 0"/></svg>