<svg id="svg5" height="512" viewBox="0 0 13.229166 13.229166" width="512" xmlns="http://www.w3.org/2000/svg" xmlns:svg="http://www.w3.org/2000/svg"><g id="layer1"><g id="g1745" transform="matrix(.265 0 0 .265 -23.812 -1.852)"><path id="path66778" d="m131 49c0 1.104569-.89543 2-2 2h-28c-1.10457 0-2-.895431-2-2v-34c0-1.104569.89543-2 2-2h20l10 10z" fill="#ecf5ff"/><path id="path66800" d="m130.49994 23h-7.5c-1.10457 0-2-.895431-2-2v-7.5" fill="#bdddff"/><path id="path10836" d="m101 12c-1.645007 0-3 1.354992-3 3v34c0 1.645008 1.354993 3 3 3h28c1.64501 0 3-1.354993 3-3v-26a1.0001 1.0001 0 0 0 -.29297-.707031l-10-10a1.0001 1.0001 0 0 0 -.70703-.292969zm0 2h19v7c0 1.645007 1.35499 3 3 3h7v25c0 .564128-.43587 1-1 1h-28c-.56412 0-1-.435872-1-1v-34c0-.564128.43588-1 1-1zm21 1.414062 6.58594 6.585938h-5.58594c-.56413 0-1-.435872-1-1zm-15.5 6.585938a1 1 0 0 0 -1 1 1 1 0 0 0 1 1h9a1 1 0 0 0 1-1 1 1 0 0 0 -1-1zm0 6a1 1 0 0 0 -1 1 1 1 0 0 0 1 1h17a1 1 0 0 0 1-1 1 1 0 0 0 -1-1zm0 6a1 1 0 0 0 -1 1 1 1 0 0 0 1 1h17a1 1 0 0 0 1-1 1 1 0 0 0 -1-1zm0 6a1 1 0 0 0 -1 1 1 1 0 0 0 1 1h17a1 1 0 0 0 1-1 1 1 0 0 0 -1-1z" fill="#3d9ce2"/></g></g></svg>