<svg id="Layer_1" enable-background="new 0 0 450 450" height="512" viewBox="0 0 450 450" width="512" xmlns="http://www.w3.org/2000/svg" xmlns:xlink="http://www.w3.org/1999/xlink"><linearGradient id="SVGID_1_" gradientTransform="matrix(1 0 0 -1 0 450)" gradientUnits="userSpaceOnUse" x1="87.252" x2="388.876" y1="309.652" y2="8.028"><stop offset="0" stop-color="#00dbde"/><stop offset="1" stop-color="#fc00ff"/></linearGradient><path d="m35.7 328.2c0 7.1-5.8 12.9-12.9 12.9s-12.9-5.8-12.9-12.9 5.8-12.9 12.9-12.9c7.1.1 12.9 5.8 12.9 12.9zm-5.8 74c1.6-6.9 8.6-11.2 15.5-9.6s11.2 8.6 9.6 15.5-8.6 11.2-15.5 9.6-11.2-8.5-9.6-15.5zm397.2-86.8c7.1 0 12.9 5.8 12.9 12.9s-5.8 12.9-12.9 12.9-12.9-5.8-12.9-12.9c.1-7.2 5.9-12.9 12.9-12.9zm-32.1 86.9c1.6-6.9 8.5-11.2 15.4-9.6s11.2 8.5 9.6 15.4-8.5 11.2-15.4 9.6-11.2-8.5-9.6-15.4zm-108.3-168c-3.6 3.6-8.7 5.6-13.9 5.5h-25c-2.8 0-5.1 2.3-5.1 5.1v132.9c0 9.8-7.9 17.7-17.7 17.7s-17.7-7.9-17.7-17.7v-132.9c0-2.8-2.3-5.1-5.1-5.1h-24.9c-5.2.2-10.3-1.8-13.9-5.5-3.5-3.5-5.5-8.3-5.5-13.3s1.9-9.8 5.5-13.3l48.4-48.4c7.3-7.3 19.3-7.3 26.6 0l48.4 48.4c7.2 7.4 7.2 19.3-.1 26.6zm121.7-10.9c0 21.5-11.1 40.5-27.8 51.5-9.8 6.5-21.4 10.2-34 10.2h-93.8v-35.1h19.6c8 .2 15.8-2.8 21.4-8.5 5.5-5.5 8.5-12.7 8.5-20.5s-3-15.1-8.5-20.5l-48.4-48.4c-5.5-5.4-12.7-8.5-20.5-8.5s-15 3-20.5 8.5l-48.4 48.4c-5.4 5.4-8.5 12.7-8.5 20.5s3 15 8.5 20.5c5.6 5.6 13.4 8.7 21.4 8.5h19.6v35.2h-93.8c-12.5 0-24.2-3.8-34-10.2-16.7-11-27.8-30-27.8-51.6 0-33.6 27.3-61.3 60.9-61.8 1.5 0 2.9-.7 3.9-1.9.9-1.2 1.3-2.7 1-4.2-.7-3.6-1.1-7.2-1.1-10.9 0-30.8 25.1-55.9 55.9-55.9 10.7 0 21.1 3 30.1 8.8 1.4.9 3.2 1.1 4.8.4s2.7-2.1 3-3.7c6.8-36.1 38.4-62.3 75.1-62.3 42.2 0 76.5 34.3 76.5 76.5 0 16.5-5.2 32.2-14.9 45.4-1.2 1.6-1.3 3.8-.4 5.5 1 1.8 2.9 2.8 4.9 2.6 1.8-.2 3.7-.2 5.4-.2 34.2 0 61.9 27.7 61.9 61.7zm-19.8 99.7h16.1c-.4 1.6-.6 3.3-.6 5.1s.2 3.5.6 5.1h-21.2c-2.8 0-5.1-2.3-5.1-5.1v-40.2c3.6-1.8 7-3.8 10.2-6.1zm-79.2 77h75.8c-.4 1.6-.6 3.3-.6 5.1s.2 3.5.6 5.1h-80.9c-2.8 0-5.1-2.3-5.1-5.1v-109.8h10.2zm-158.6-104.7v109.8c0 2.8-2.3 5.1-5.1 5.1h-80.8c.4-1.6.6-3.3.6-5.1s-.2-3.5-.6-5.1h75.8v-104.7zm-79.2-7.4v40.2c0 2.8-2.3 5.1-5.1 5.1h-21.2c.4-1.6.6-3.3.6-5.1s-.2-3.5-.6-5.1h16.1v-41.3c3.2 2.4 6.6 4.4 10.2 6.2z" fill="url(#SVGID_1_)"/></svg>